<svg viewBox="0 0 368 257" fill="none" xmlns="http://www.w3.org/2000/svg">
<path d="M256.34 27.6V237H214.34V100.8L158.24 237H126.44L70.0398 100.8V237H28.0398V27.6H75.7398L142.34 183.3L208.94 27.6H256.34ZM319.164 51C311.764 51 305.564 48.7 300.564 44.1C295.764 39.3 293.364 33.4 293.364 26.4C293.364 19.4 295.764 13.6 300.564 8.99998C305.564 4.19999 311.764 1.79999 319.164 1.79999C326.564 1.79999 332.664 4.19999 337.464 8.99998C342.464 13.6 344.964 19.4 344.964 26.4C344.964 33.4 342.464 39.3 337.464 44.1C332.664 48.7 326.564 51 319.164 51ZM339.864 70.8V237H297.864V70.8H339.864Z" fill="black"/>
<ellipse cx="319.1" cy="26" rx="26.1" ry="26" fill="#993AD3"/>
</svg>
