<svg viewBox="0 0 340 84" fill="none" xmlns="http://www.w3.org/2000/svg">
<path d="M90.5977 9.2V79H76.5977V33.6L57.8977 79H47.2977L28.4977 33.6V79H14.4977V9.2H30.3977L52.5977 61.1L74.7977 9.2H90.5977ZM111.539 17C109.072 17 107.006 16.2333 105.339 14.7C103.739 13.1 102.939 11.1333 102.939 8.8C102.939 6.46666 103.739 4.53333 105.339 2.99999C107.006 1.4 109.072 0.599996 111.539 0.599996C114.006 0.599996 116.039 1.4 117.639 2.99999C119.306 4.53333 120.139 6.46666 120.139 8.8C120.139 11.1333 119.306 13.1 117.639 14.7C116.039 16.2333 114.006 17 111.539 17ZM118.439 23.6V79H104.439V23.6H118.439ZM146.271 32.2C148.071 29.2667 150.404 26.9667 153.271 25.3C156.204 23.6333 159.538 22.8 163.271 22.8V37.5H159.571C155.171 37.5 151.838 38.5333 149.571 40.6C147.371 42.6667 146.271 46.2667 146.271 51.4V79H132.271V23.6H146.271V32.2ZM189.001 35.1V61.9C189.001 63.7667 189.434 65.1333 190.301 66C191.234 66.8 192.767 67.2 194.901 67.2H201.401V79H192.601C180.801 79 174.901 73.2667 174.901 61.8V35.1H168.301V23.6H174.901V9.9H189.001V23.6H201.401V35.1H189.001ZM242.67 22.8C246.87 22.8 250.604 23.7333 253.87 25.6C257.137 27.4 259.67 30.1 261.47 33.7C263.337 37.2333 264.27 41.5 264.27 46.5V79H250.27V48.4C250.27 44 249.17 40.6333 246.97 38.3C244.77 35.9 241.77 34.7 237.97 34.7C234.104 34.7 231.037 35.9 228.77 38.3C226.57 40.6333 225.47 44 225.47 48.4V79H211.47V5H225.47V30.5C227.27 28.1 229.67 26.2333 232.67 24.9C235.67 23.5 239.004 22.8 242.67 22.8ZM329.084 50.1C329.084 52.1 328.95 53.9 328.684 55.5H288.184C288.517 59.5 289.917 62.6333 292.384 64.9C294.85 67.1667 297.884 68.3 301.484 68.3C306.684 68.3 310.384 66.0667 312.584 61.6H327.684C326.084 66.9333 323.017 71.3333 318.484 74.8C313.95 78.2 308.384 79.9 301.784 79.9C296.45 79.9 291.65 78.7333 287.384 76.4C283.184 74 279.884 70.6333 277.484 66.3C275.15 61.9667 273.984 56.9667 273.984 51.3C273.984 45.5667 275.15 40.5333 277.484 36.2C279.817 31.8667 283.084 28.5333 287.284 26.2C291.484 23.8667 296.317 22.7 301.784 22.7C307.05 22.7 311.75 23.8333 315.884 26.1C320.084 28.3667 323.317 31.6 325.584 35.8C327.917 39.9333 329.084 44.7 329.084 50.1ZM314.584 46.1C314.517 42.5 313.217 39.6333 310.684 37.5C308.15 35.3 305.05 34.2 301.384 34.2C297.917 34.2 294.984 35.2667 292.584 37.4C290.25 39.4667 288.817 42.3667 288.284 46.1H314.584Z" fill="black"/>
<ellipse cx="111.5" cy="9" rx="9.5" ry="9" fill="#8E40CC"/>
<rect x="228" y="5" width="36" height="11" fill="#8E40CC"/>
</svg>
